<svg width="76" height="38" viewBox="0 0 76 38" fill="none" xmlns="http://www.w3.org/2000/svg">
<g filter="url(#filter0_dddi_1019_33137)">
<g clip-path="url(#clip0_1019_33137)">
<path d="M3 14.8C3 10.3196 3 8.07937 3.87195 6.36808C4.63893 4.86278 5.86278 3.63893 7.36808 2.87195C9.07937 2 11.3196 2 15.8 2H22.2C26.6804 2 28.9206 2 30.6319 2.87195C32.1372 3.63893 33.3611 4.86278 34.1281 6.36808C35 8.07937 35 10.3196 35 14.8V21.2C35 25.6804 35 27.9206 34.1281 29.6319C33.3611 31.1372 32.1372 32.3611 30.6319 33.1281C28.9206 34 26.6804 34 22.2 34H15.8C11.3196 34 9.07937 34 7.36808 33.1281C5.86278 32.3611 4.63893 31.1372 3.87195 29.6319C3 27.9206 3 25.6804 3 21.2V14.8Z" fill="white"></path>
<path d="M3 14.8C3 10.3196 3 8.07937 3.87195 6.36808C4.63893 4.86278 5.86278 3.63893 7.36808 2.87195C9.07937 2 11.3196 2 15.8 2H22.2C26.6804 2 28.9206 2 30.6319 2.87195C32.1372 3.63893 33.3611 4.86278 34.1281 6.36808C35 8.07937 35 10.3196 35 14.8V21.2C35 25.6804 35 27.9206 34.1281 29.6319C33.3611 31.1372 32.1372 32.3611 30.6319 33.1281C28.9206 34 26.6804 34 22.2 34H15.8C11.3196 34 9.07937 34 7.36808 33.1281C5.86278 32.3611 4.63893 31.1372 3.87195 29.6319C3 27.9206 3 25.6804 3 21.2V14.8Z" fill="url(#paint0_linear_1019_33137)" fill-opacity="0.2"></path>
<g opacity="0.14" clip-path="url(#clip1_1019_33137)">
<path fill-rule="evenodd" clip-rule="evenodd" d="M18.9612 2H19.0388V3.96123C20.8929 3.96625 22.6625 4.33069 24.2816 4.98855V2H24.3592V5.02038C25.7339 5.58859 26.9986 6.36882 28.1126 7.32031H29.602V2H29.6796V7.32031H35V7.39798H29.6796V8.88728C30.6311 10.0013 31.4113 11.266 31.9796 12.6406H35V12.7183H32.0114C32.6693 14.3373 33.0337 16.1069 33.0388 17.9609H35V18.0386H33.0388C33.0338 19.8927 32.6694 21.6622 32.0116 23.2812H35V23.3589H31.9798C31.4115 24.7337 30.6312 25.9986 29.6796 27.1128V28.6016H35V28.6792H29.6796V34H29.602V28.6792H28.1132C26.999 29.6309 25.7341 30.4113 24.3592 30.9797V34H24.2816V31.0115C22.6625 31.6693 20.8929 32.0338 19.0388 32.0388V34H18.9612V32.0388C17.1071 32.0338 15.3375 31.6693 13.7184 31.0115V34H13.6408V30.9797C12.2659 30.4113 11.001 29.6309 9.88678 28.6792H8.39804V34H8.32037V28.6792H3V28.6016H8.32037V27.1128C7.36877 25.9986 6.58847 24.7337 6.02023 23.3589H3V23.2812H5.9884C5.3306 21.6622 4.96621 19.8927 4.96122 18.0386H3V17.9609H4.96122C4.96627 16.1069 5.33073 14.3373 5.9886 12.7183H3V12.6406H6.02044C6.58866 11.266 7.36889 10.0013 8.32037 8.88728V7.39798H3V7.32031H8.32037V2H8.39804V7.32031H9.88736C11.0014 6.36882 12.2661 5.58859 13.6408 5.02038V2H13.7184V4.98855C15.3375 4.33069 17.1071 3.96626 18.9612 3.96123V2ZM18.9612 4.0389C17.1062 4.04396 15.3364 4.41075 13.7184 5.07245V7.32031H18.9612V4.0389ZM13.6408 5.10449C12.3137 5.65662 11.0902 6.40763 10.0074 7.32031H13.6408V5.10449ZM9.79719 7.39798H8.39804V8.79711C8.8311 8.29865 9.29872 7.83103 9.79719 7.39798ZM8.39804 8.91598C8.86452 8.37206 9.37213 7.86446 9.91606 7.39798H13.6408V12.6406H8.39804V8.91598ZM8.32037 9.00733C7.4077 10.0901 6.65669 11.3136 6.10454 12.6406H8.32037V9.00733ZM6.0725 12.7183C5.41078 14.3362 5.04397 16.106 5.03889 17.9609H8.32037V12.7183H6.0725ZM5.03889 18.0386C5.04391 19.8935 5.41065 21.6633 6.0723 23.2812H8.32037V18.0386H5.03889ZM6.10434 23.3589C6.6565 24.6861 7.40759 25.9098 8.32037 26.9927V23.3589H6.10434ZM8.39804 27.2029V28.6016H9.79662C9.29837 28.1686 8.83093 27.7012 8.39804 27.2029ZM9.91548 28.6016C9.37178 28.1352 8.86436 27.6278 8.39804 27.0841V23.3589H13.6408V28.6016H9.91548ZM10.0068 28.6792C11.0898 29.5921 12.3135 30.3433 13.6408 30.8955V28.6792H10.0068ZM13.7184 30.9276C15.3364 31.5893 17.1062 31.9561 18.9612 31.9611V28.6792H13.7184V30.9276ZM19.0388 31.9611C20.8937 31.9561 22.6636 31.5893 24.2816 30.9276V28.6792H19.0388V31.9611ZM24.3592 30.8955C25.6865 30.3433 26.9102 29.5921 27.9932 28.6792H24.3592V30.8955ZM28.2034 28.6016H29.602V27.2029C29.1691 27.7012 28.7016 28.1686 28.2034 28.6016ZM29.602 27.0841C29.1356 27.6278 28.6282 28.1352 28.0845 28.6016H24.3592V23.3589H29.602V27.0841ZM29.6796 26.9927C30.5924 25.9098 31.3435 24.6861 31.8957 23.3589H29.6796V26.9927ZM31.9277 23.2812C32.5894 21.6633 32.9561 19.8935 32.9611 18.0386H29.6796V23.2812H31.9277ZM32.9611 17.9609C32.956 16.1061 32.5892 14.3362 31.9275 12.7183H29.6796V17.9609H32.9611ZM31.8955 12.6406C31.3433 11.3136 30.5923 10.0901 29.6796 9.00733V12.6406H31.8955ZM29.602 8.79711V7.39798H28.2028C28.7013 7.83103 29.1689 8.29865 29.602 8.79711ZM28.0839 7.39798C28.6279 7.86446 29.1355 8.37206 29.602 8.91598V12.6406H24.3592V7.39798H28.0839ZM27.9926 7.32031C26.9098 6.40763 25.6863 5.65662 24.3592 5.10449V7.32031H27.9926ZM24.2816 5.07245C22.6636 4.41074 20.8937 4.04395 19.0388 4.0389V7.32031H24.2816V5.07245ZM13.7184 7.39798H18.9612V12.6406H13.7184V7.39798ZM24.2816 7.39798H19.0388V12.6406H24.2816V7.39798ZM13.6408 23.2812H8.39804V18.0386H13.6408V23.2812ZM13.7184 23.3589V28.6016H18.9612V23.3589H13.7184ZM18.9612 23.2812H13.7184V18.0386H18.9612V23.2812ZM19.0388 23.3589V28.6016H24.2816V23.3589H19.0388ZM24.2816 23.2812H19.0388V18.0386H24.2816V23.2812ZM29.602 23.2812H24.3592V18.0386H29.602V23.2812ZM13.7184 12.7183H18.9612V17.9609H13.7184V12.7183ZM8.39804 12.7183L13.6408 12.7183V17.9609H8.39804V12.7183ZM24.2816 12.7183H19.0388V17.9609H24.2816V12.7183ZM24.3592 17.9609V12.7183L29.602 12.7183V17.9609H24.3592Z" fill="#0A0D12"></path>
</g>
<g filter="url(#filter1_dd_1019_33137)">
<rect x="11" y="10" width="16" height="16" rx="8" fill="url(#paint1_linear_1019_33137)"></rect>
<rect x="11" y="10" width="16" height="16" rx="8" fill="url(#paint2_radial_1019_33137)" fill-opacity="0.08"></rect>
<rect x="11" y="10" width="16" height="16" rx="8" fill="url(#paint3_radial_1019_33137)" fill-opacity="0.18"></rect>
<rect x="11" y="10" width="16" height="16" rx="8" fill="url(#paint4_radial_1019_33137)" fill-opacity="0.05"></rect>
<path d="M23.8 14.0414C23.8 15.3898 21.651 14.5297 19 14.5297C16.349 14.5297 14.2 15.3898 14.2 14.0414C14.2 12.693 16.349 11.6 19 11.6C21.651 11.6 23.8 12.693 23.8 14.0414Z" fill="url(#paint5_linear_1019_33137)" fill-opacity="0.4"></path>
</g>
<g data-figma-bg-blur-radius="5">
<path d="M3 18H35V21.2C35 25.6804 35 27.9206 34.1281 29.6319C33.3611 31.1372 32.1372 32.3611 30.6319 33.1281C28.9206 34 26.6804 34 22.2 34H15.8C11.3196 34 9.07937 34 7.36808 33.1281C5.86278 32.3611 4.63893 31.1372 3.87195 29.6319C3 27.9206 3 25.6804 3 21.2V18Z" fill="white" fill-opacity="0.2"></path>
</g>
<rect x="2.99998" y="2" width="32" height="32" rx="6.29508" fill="url(#paint6_linear_1019_33137)"></rect>
<path d="M14.5417 20.5931V17.4865C14.5417 17.1097 14.2362 16.8042 13.8594 16.8042C13.4826 16.8042 13.1771 17.1097 13.1771 17.4865V20.5931C13.1771 23.6081 15.4851 26.1746 18.4778 26.1746C21.4315 26.1746 23.7841 23.7081 23.8207 20.7084L23.8211 20.6375V19.7286C23.8211 19.3518 23.5156 19.0463 23.1388 19.0463C22.7679 19.0463 22.4661 19.3423 22.4567 19.711L22.4565 19.7286V20.6375L22.4562 20.692C22.4283 22.997 20.6323 24.81 18.4778 24.81C16.3222 24.81 14.5417 22.9406 14.5417 20.5931Z" fill="white"></path>
<path d="M23.8211 22.9642V13.5883C23.8211 13.2115 23.5156 12.906 23.1388 12.906C22.762 12.906 22.4565 13.2115 22.4565 13.5883V22.9642C22.4565 25.7391 19.9213 28.4489 16.7933 28.4489C13.6596 28.4489 11.1302 25.8145 11.1302 22.9642V20.6706C11.1302 20.2938 10.8247 19.9883 10.4479 19.9883C10.071 19.9883 9.76555 20.2938 9.76555 20.6706V22.9642C9.76556 26.5801 12.918 29.8135 16.7933 29.8135C20.6744 29.8135 23.8211 26.4934 23.8211 22.9642Z" fill="white"></path>
<path d="M17.9078 18.8966C17.9078 17.6405 18.926 16.6222 20.1821 16.6222C21.4382 16.6222 22.4565 17.6405 22.4565 18.8966C22.4565 20.1526 21.4382 21.1709 20.1821 21.1709V22.5355C22.1919 22.5355 23.8211 20.9063 23.8211 18.8966C23.8211 16.8868 22.1919 15.2576 20.1821 15.2576C18.1724 15.2576 16.5432 16.8868 16.5432 18.8966C16.5432 20.9063 18.1724 22.5355 20.1821 22.5355V21.1709C18.926 21.1709 17.9078 20.1526 17.9078 18.8966Z" fill="white"></path>
<path d="M14.7695 13.2562C14.7695 13.7586 14.3622 14.1659 13.8598 14.1659C13.3573 14.1659 12.95 13.7586 12.95 13.2562C12.95 12.7537 13.3573 12.3464 13.8598 12.3464C14.3622 12.3464 14.7695 12.7537 14.7695 13.2562Z" fill="white"></path>
<path d="M22.8661 16.1492C22.9153 16.4285 23.3619 16.4285 23.4111 16.1492C23.9684 12.9858 24.7985 12.1299 27.9212 11.5681L27.9721 11.2777L27.9212 10.9874C24.7985 10.4257 23.9684 9.56971 23.4111 6.40629L23.4084 6.3934C23.3489 6.13133 22.9283 6.13133 22.8688 6.3934L22.8661 6.40629C22.3118 9.55285 21.4876 10.4165 18.4058 10.9785L18.2574 11.005C17.9778 11.054 17.9778 11.5014 18.2574 11.5504C21.4614 12.1121 22.303 12.9527 22.8661 16.1492ZM23.1386 12.677C22.9608 12.396 22.7556 12.1349 22.516 11.8959C22.2779 11.6582 22.0181 11.4544 21.7384 11.2778C22.0181 11.1011 22.2779 10.8973 22.516 10.6597C22.7555 10.4206 22.9608 10.1596 23.1386 9.8786C23.3163 10.1596 23.5217 10.4206 23.7612 10.6597C23.9993 10.8973 24.2591 11.1012 24.5388 11.2778C24.2592 11.4544 23.9993 11.6582 23.7612 11.8959C23.5217 12.1349 23.3164 12.3959 23.1386 12.677ZM28.0199 11.5504C28.2995 11.5014 28.2995 11.054 28.0199 11.005L27.9212 10.9874L27.9721 11.2777L27.9212 11.5681C27.9539 11.5622 27.9868 11.5563 28.0199 11.5504Z" fill="white"></path>
<path d="M23.1386 12.677C22.9608 12.396 22.7556 12.1349 22.516 11.8959C22.2779 11.6582 22.0181 11.4544 21.7384 11.2778C22.0181 11.1011 22.2779 10.8973 22.516 10.6597C22.7555 10.4206 22.9608 10.1596 23.1386 9.8786C23.3163 10.1596 23.5217 10.4206 23.7612 10.6597C23.9993 10.8973 24.2591 11.1012 24.5388 11.2778C24.2592 11.4544 23.9993 11.6582 23.7612 11.8959C23.5217 12.1349 23.3164 12.3959 23.1386 12.677Z" fill="white"></path>
</g>
<path d="M15.7998 2.09961H22.2002C24.442 2.09961 26.1173 2.1004 27.4463 2.20898C28.7741 2.31747 29.7477 2.53335 30.5869 2.96094C32.0732 3.7183 33.2817 4.92681 34.0391 6.41309C34.4666 7.25227 34.6825 8.22592 34.791 9.55371C34.8996 10.8827 34.9004 12.558 34.9004 14.7998V21.2002C34.9004 23.442 34.8996 25.1173 34.791 26.4463C34.6825 27.7741 34.4666 28.7477 34.0391 29.5869C33.2817 31.0732 32.0732 32.2817 30.5869 33.0391C29.7477 33.4666 28.7741 33.6825 27.4463 33.791C26.1173 33.8996 24.442 33.9004 22.2002 33.9004H15.7998C13.558 33.9004 11.8827 33.8996 10.5537 33.791C9.22592 33.6825 8.25227 33.4666 7.41309 33.0391C5.92681 32.2817 4.7183 31.0732 3.96094 29.5869C3.53335 28.7477 3.31747 27.7741 3.20898 26.4463C3.1004 25.1173 3.09961 23.442 3.09961 21.2002V14.7998C3.09961 12.558 3.1004 10.8827 3.20898 9.55371C3.31747 8.22592 3.53335 7.25227 3.96094 6.41309C4.7183 4.92681 5.92681 3.7183 7.41309 2.96094C8.25227 2.53335 9.22592 2.31747 10.5537 2.20898C11.8827 2.1004 13.558 2.09961 15.7998 2.09961Z" stroke="#0A0D12" stroke-opacity="0.12" stroke-width="0.2"></path>
</g>
<path d="M47.8643 27.3808C46.7797 27.3808 45.8217 27.1729 44.9901 26.7571C44.1767 26.3233 43.5079 25.7448 42.9837 25.0218L44.7732 23.3678C45.1167 23.8739 45.5415 24.2626 46.0476 24.5337C46.5718 24.8049 47.1503 24.9404 47.783 24.9404C48.4156 24.9404 48.976 24.8049 49.4641 24.5337C49.9521 24.2626 50.3317 23.8649 50.6029 23.3407C50.8921 22.7984 51.0367 22.1386 51.0367 21.3613V8.29203H53.5855V21.2257C53.5855 22.473 53.3324 23.5576 52.8263 24.4795C52.3382 25.4014 51.6604 26.1154 50.7927 26.6216C49.9431 27.1277 48.967 27.3808 47.8643 27.3808Z" fill="#0A0D12"></path>
<path d="M57.4118 27.1096V14.2301H59.8522V27.1096H57.4118Z" fill="#0A0D12"></path>
<path fill-rule="evenodd" clip-rule="evenodd" d="M65.7261 26.5131C66.6841 27.0915 67.7507 27.3808 68.9256 27.3808C69.9198 27.3808 70.7965 27.1819 71.5558 26.7842C72.2292 26.424 72.7805 25.9485 73.2097 25.3575V27.1096H75.6772V14.2301H73.2097V15.9917C72.7659 15.3986 72.2055 14.929 71.5286 14.5826C70.7694 14.1669 69.9018 13.959 68.9256 13.959C67.7326 13.959 66.657 14.2573 65.699 14.8538C64.759 15.4503 64.0088 16.2547 63.4485 17.267C62.9062 18.2793 62.635 19.4181 62.635 20.6834C62.635 21.9488 62.9062 23.0876 63.4485 24.0999C64.0088 25.1122 64.768 25.9166 65.7261 26.5131ZM73.2097 15.9917V17.3754L73.6707 20.4936L73.2097 23.6389V25.3575C73.2759 25.2664 73.3392 25.1726 73.3995 25.076C73.8695 24.353 74.1316 23.5305 74.1859 22.6086V18.7312C74.1316 17.7912 73.8695 16.9687 73.3995 16.2637C73.3388 16.1704 73.2756 16.0797 73.2097 15.9917ZM72.2607 23.8559C71.5196 24.6693 70.5435 25.076 69.3323 25.076C68.5189 25.076 67.7958 24.8862 67.1632 24.5066C66.5305 24.127 66.0334 23.6118 65.6719 22.9611C65.3284 22.2922 65.1567 21.524 65.1567 20.6563C65.1567 19.8067 65.3284 19.0566 65.6719 18.4058C66.0334 17.737 66.5215 17.2128 67.1361 16.8332C67.7687 16.4535 68.4918 16.2637 69.3052 16.2637C70.1187 16.2637 70.8327 16.4535 71.4473 16.8332C72.0619 17.1947 72.5319 17.7099 72.8573 18.3787C73.2007 19.0294 73.3724 19.7977 73.3724 20.6834C73.3724 21.9669 73.0019 23.0243 72.2607 23.8559Z" fill="#0A0D12"></path>
<path d="M73.2097 15.9917C73.2756 16.0797 73.3388 16.1704 73.3995 16.2637C73.8695 16.9687 74.1316 17.7912 74.1859 18.7312V22.6086C74.1316 23.5305 73.8695 24.353 73.3995 25.076C73.3392 25.1726 73.2759 25.2664 73.2097 25.3575V23.6389L73.6707 20.4936L73.2097 17.3754V15.9917Z" fill="#0A0D12"></path>
<path d="M58.8557 7.52411C58.8137 7.33091 58.4851 7.33091 58.4431 7.52411C58.1809 8.72918 57.761 9.14915 56.5559 9.41134C56.3627 9.45337 56.3627 9.78189 56.5559 9.82392C57.761 10.0861 58.1809 10.5061 58.4431 11.7112C58.4851 11.9044 58.8137 11.9044 58.8557 11.7112C59.1179 10.5061 59.5379 10.0861 60.743 9.82392C60.9361 9.78189 60.9361 9.45337 60.743 9.41134C59.5379 9.14915 59.1179 8.72919 58.8557 7.52411Z" fill="#0A0D12"></path>
<defs>
<filter id="filter0_dddi_1019_33137" x="0" y="0" width="38" height="38" filterUnits="userSpaceOnUse" color-interpolation-filters="sRGB">
<feFlood flood-opacity="0" result="BackgroundImageFix"></feFlood>
<feColorMatrix in="SourceAlpha" type="matrix" values="0 0 0 0 0 0 0 0 0 0 0 0 0 0 0 0 0 0 127 0" result="hardAlpha"></feColorMatrix>
<feOffset dy="1"></feOffset>
<feGaussianBlur stdDeviation="1"></feGaussianBlur>
<feColorMatrix type="matrix" values="0 0 0 0 0.0392157 0 0 0 0 0.0509804 0 0 0 0 0.0705882 0 0 0 0.06 0"></feColorMatrix>
<feBlend mode="normal" in2="BackgroundImageFix" result="effect1_dropShadow_1019_33137"></feBlend>
<feColorMatrix in="SourceAlpha" type="matrix" values="0 0 0 0 0 0 0 0 0 0 0 0 0 0 0 0 0 0 127 0" result="hardAlpha"></feColorMatrix>
<feOffset dy="1"></feOffset>
<feGaussianBlur stdDeviation="1.5"></feGaussianBlur>
<feColorMatrix type="matrix" values="0 0 0 0 0.0392157 0 0 0 0 0.0509804 0 0 0 0 0.0705882 0 0 0 0.1 0"></feColorMatrix>
<feBlend mode="normal" in2="effect1_dropShadow_1019_33137" result="effect2_dropShadow_1019_33137"></feBlend>
<feColorMatrix in="SourceAlpha" type="matrix" values="0 0 0 0 0 0 0 0 0 0 0 0 0 0 0 0 0 0 127 0" result="hardAlpha"></feColorMatrix>
<feMorphology radius="0.5" operator="erode" in="SourceAlpha" result="effect3_dropShadow_1019_33137"></feMorphology>
<feOffset dy="1"></feOffset>
<feGaussianBlur stdDeviation="0.5"></feGaussianBlur>
<feComposite in2="hardAlpha" operator="out"></feComposite>
<feColorMatrix type="matrix" values="0 0 0 0 0.0392157 0 0 0 0 0.0509804 0 0 0 0 0.0705882 0 0 0 0.13 0"></feColorMatrix>
<feBlend mode="normal" in2="effect2_dropShadow_1019_33137" result="effect3_dropShadow_1019_33137"></feBlend>
<feBlend mode="normal" in="SourceGraphic" in2="effect3_dropShadow_1019_33137" result="shape"></feBlend>
<feColorMatrix in="SourceAlpha" type="matrix" values="0 0 0 0 0 0 0 0 0 0 0 0 0 0 0 0 0 0 127 0" result="hardAlpha"></feColorMatrix>
<feOffset dy="-0.5"></feOffset>
<feGaussianBlur stdDeviation="0.25"></feGaussianBlur>
<feComposite in2="hardAlpha" operator="arithmetic" k2="-1" k3="1"></feComposite>
<feColorMatrix type="matrix" values="0 0 0 0 0.0392157 0 0 0 0 0.0509804 0 0 0 0 0.0705882 0 0 0 0.1 0"></feColorMatrix>
<feBlend mode="normal" in2="shape" result="effect4_innerShadow_1019_33137"></feBlend>
</filter>
<filter id="filter1_dd_1019_33137" x="8" y="8" width="22" height="22" filterUnits="userSpaceOnUse" color-interpolation-filters="sRGB">
<feFlood flood-opacity="0" result="BackgroundImageFix"></feFlood>
<feColorMatrix in="SourceAlpha" type="matrix" values="0 0 0 0 0 0 0 0 0 0 0 0 0 0 0 0 0 0 127 0" result="hardAlpha"></feColorMatrix>
<feOffset dy="1"></feOffset>
<feGaussianBlur stdDeviation="1"></feGaussianBlur>
<feColorMatrix type="matrix" values="0 0 0 0 0.0392157 0 0 0 0 0.0509804 0 0 0 0 0.0705882 0 0 0 0.06 0"></feColorMatrix>
<feBlend mode="normal" in2="BackgroundImageFix" result="effect1_dropShadow_1019_33137"></feBlend>
<feColorMatrix in="SourceAlpha" type="matrix" values="0 0 0 0 0 0 0 0 0 0 0 0 0 0 0 0 0 0 127 0" result="hardAlpha"></feColorMatrix>
<feOffset dy="1"></feOffset>
<feGaussianBlur stdDeviation="1.5"></feGaussianBlur>
<feColorMatrix type="matrix" values="0 0 0 0 0.0392157 0 0 0 0 0.0509804 0 0 0 0 0.0705882 0 0 0 0.1 0"></feColorMatrix>
<feBlend mode="normal" in2="effect1_dropShadow_1019_33137" result="effect2_dropShadow_1019_33137"></feBlend>
<feBlend mode="normal" in="SourceGraphic" in2="effect2_dropShadow_1019_33137" result="shape"></feBlend>
</filter>
<clipPath id="bgblur_2_1019_33137_clip_path" transform="translate(2 -13)"><path d="M3 18H35V21.2C35 25.6804 35 27.9206 34.1281 29.6319C33.3611 31.1372 32.1372 32.3611 30.6319 33.1281C28.9206 34 26.6804 34 22.2 34H15.8C11.3196 34 9.07937 34 7.36808 33.1281C5.86278 32.3611 4.63893 31.1372 3.87195 29.6319C3 27.9206 3 25.6804 3 21.2V18Z"></path>
</clipPath><linearGradient id="paint0_linear_1019_33137" x1="19" y1="2" x2="19" y2="34" gradientUnits="userSpaceOnUse">
<stop stop-color="white"></stop>
<stop offset="1" stop-color="#0A0D12"></stop>
</linearGradient>
<linearGradient id="paint1_linear_1019_33137" x1="15" y1="26" x2="23" y2="10" gradientUnits="userSpaceOnUse">
<stop stop-color="#53389E"></stop>
<stop offset="1" stop-color="#6941C6"></stop>
</linearGradient>
<radialGradient id="paint2_radial_1019_33137" cx="0" cy="0" r="1" gradientUnits="userSpaceOnUse" gradientTransform="translate(19 10) rotate(90) scale(12)">
<stop stop-color="white" stop-opacity="0"></stop>
<stop offset="0.5" stop-color="white" stop-opacity="0"></stop>
<stop offset="0.99" stop-color="white"></stop>
<stop offset="1" stop-color="white" stop-opacity="0"></stop>
</radialGradient>
<radialGradient id="paint3_radial_1019_33137" cx="0" cy="0" r="1" gradientUnits="userSpaceOnUse" gradientTransform="translate(19 18) rotate(90) scale(8)">
<stop offset="0.746599" stop-color="white" stop-opacity="0"></stop>
<stop offset="1" stop-color="white"></stop>
</radialGradient>
<radialGradient id="paint4_radial_1019_33137" cx="0" cy="0" r="1" gradientUnits="userSpaceOnUse" gradientTransform="translate(19 14.6) rotate(90) scale(7)">
<stop stop-color="white"></stop>
<stop offset="1" stop-color="white" stop-opacity="0"></stop>
</radialGradient>
<linearGradient id="paint5_linear_1019_33137" x1="19" y1="11.6" x2="19" y2="14.8" gradientUnits="userSpaceOnUse">
<stop stop-color="white"></stop>
<stop offset="1" stop-color="white" stop-opacity="0.1"></stop>
</linearGradient>
<linearGradient id="paint6_linear_1019_33137" x1="32.4819" y1="3.44262" x2="5.80654" y2="32.1902" gradientUnits="userSpaceOnUse">
<stop stop-color="#9FCAED"></stop>
<stop offset="0.33" stop-color="#CEB6DA"></stop>
<stop offset="0.66" stop-color="#EBACC9"></stop>
<stop offset="1" stop-color="#FCCEC0"></stop>
</linearGradient>
<clipPath id="clip0_1019_33137">
<path d="M3 14.8C3 10.3196 3 8.07937 3.87195 6.36808C4.63893 4.86278 5.86278 3.63893 7.36808 2.87195C9.07937 2 11.3196 2 15.8 2H22.2C26.6804 2 28.9206 2 30.6319 2.87195C32.1372 3.63893 33.3611 4.86278 34.1281 6.36808C35 8.07937 35 10.3196 35 14.8V21.2C35 25.6804 35 27.9206 34.1281 29.6319C33.3611 31.1372 32.1372 32.3611 30.6319 33.1281C28.9206 34 26.6804 34 22.2 34H15.8C11.3196 34 9.07937 34 7.36808 33.1281C5.86278 32.3611 4.63893 31.1372 3.87195 29.6319C3 27.9206 3 25.6804 3 21.2V14.8Z" fill="white"></path>
</clipPath>
<clipPath id="clip1_1019_33137">
<rect width="32" height="32" fill="white" transform="translate(3 2)"></rect>
</clipPath>
</defs>
</svg>